<svg width="38" height="38" viewBox="0 0 38 38" fill="none" xmlns="http://www.w3.org/2000/svg">
<g filter="url(#filter0_d)">
<path d="M13.25 28.8501L16.75 25.25C15.5 25 14.35 24.5 13.3 23.8L13.25 28.8501Z" fill="#FFE62E"/>
<path d="M24.7501 1.15002L21.2501 4.75002C22.5001 5.00002 23.6501 5.50002 24.7001 6.20002L24.7501 1.15002Z" fill="#FFE62E"/>
<path d="M5.1499 20.75L10.1999 20.7C9.4999 19.65 8.9999 18.5 8.7499 17.25L5.1499 20.75Z" fill="#FFE62E"/>
<path d="M32.8501 9.25L27.8 9.3C28.45 10.35 28.95 11.5 29.25 12.75L32.8501 9.25Z" fill="#FFE62E"/>
<path d="M5.1499 9.25L8.7499 12.75C8.9999 11.5 9.4999 10.35 10.1999 9.3L5.1499 9.25Z" fill="#FFE62E"/>
<path d="M32.8501 20.75L29.25 17.25C29 18.5 28.5 19.65 27.8 20.7L32.8501 20.75Z" fill="#FFE62E"/>
<path d="M13.2499 1.15002L13.2999 6.20002C14.3499 5.55002 15.4999 5.05002 16.7499 4.75002L13.2499 1.15002Z" fill="#FFE62E"/>
<path d="M24.75 28.8501L24.7 23.8C23.65 24.5 22.5 25 21.25 25.25L24.75 28.8501Z" fill="#FFE62E"/>
<path d="M10.4004 21L8.40039 25.65L13.0504 23.65C12.0004 22.9 11.1004 22 10.4004 21Z" fill="#FFCE31"/>
<path d="M27.6 8.99998L29.6 4.34998L25 6.34998C26 7.09998 26.9 7.99998 27.6 8.99998Z" fill="#FFCE31"/>
<path d="M8.7 13.15L4 15L8.7 16.85C8.55 16.25 8.5 15.65 8.5 15C8.5 14.35 8.55 13.75 8.7 13.15Z" fill="#FFCE31"/>
<path d="M29.3 16.85L34 15L29.3 13.15C29.4 13.75 29.5 14.4 29.5 15C29.5 15.65 29.45 16.25 29.3 16.85Z" fill="#FFCE31"/>
<path d="M13.0001 6.40002L8.3501 4.40002L10.3501 9.05003C11.1001 8.00003 12.0001 7.10002 13.0001 6.40002Z" fill="#FFCE31"/>
<path d="M25 23.6L29.65 25.6L27.65 20.95C26.9 22 26 22.9 25 23.6Z" fill="#FFCE31"/>
<path d="M20.8501 4.7L19.0001 0L17.1501 4.7C17.7501 4.6 18.4001 4.5 19.0001 4.5C19.6001 4.5 20.2501 4.55 20.8501 4.7Z" fill="#FFCE31"/>
<path d="M17.1501 25.3L19.0001 30L20.8501 25.3C20.2501 25.45 19.6501 25.5 19.0001 25.5C18.3501 25.5 17.7501 25.45 17.1501 25.3Z" fill="#FFCE31"/>
<path d="M19 24.5C24.2467 24.5 28.5 20.2467 28.5 15C28.5 9.75329 24.2467 5.5 19 5.5C13.7533 5.5 9.5 9.75329 9.5 15C9.5 20.2467 13.7533 24.5 19 24.5Z" fill="#FFCE31"/>
<path d="M19 30C27.2843 30 34 23.2843 34 15C34 6.71573 27.2843 0 19 0C10.7157 0 4 6.71573 4 15C4 23.2843 10.7157 30 19 30Z" fill="#3E4347"/>
<path d="M28 20.1C29.933 20.1 31.5 18.533 31.5 16.6C31.5 14.667 29.933 13.1 28 13.1C26.067 13.1 24.5 14.667 24.5 16.6C24.5 18.533 26.067 20.1 28 20.1Z" fill="#141313"/>
<path d="M12.05 21.5C13.7069 21.5 15.05 20.1569 15.05 18.5C15.05 16.8431 13.7069 15.5 12.05 15.5C10.3932 15.5 9.05005 16.8431 9.05005 18.5C9.05005 20.1569 10.3932 21.5 12.05 21.5Z" fill="#141313"/>
<path d="M15.1001 28.5C17.5854 28.5 19.6001 26.4853 19.6001 24C19.6001 21.5147 17.5854 19.5 15.1001 19.5C12.6148 19.5 10.6001 21.5147 10.6001 24C10.6001 26.4853 12.6148 28.5 15.1001 28.5Z" fill="#141313"/>
<path d="M15 9.59998C16.1046 9.59998 17 8.70455 17 7.59998C17 6.49541 16.1046 5.59998 15 5.59998C13.8954 5.59998 13 6.49541 13 7.59998C13 8.70455 13.8954 9.59998 15 9.59998Z" fill="#141313"/>
<path d="M21.5002 10.1C22.6048 10.1 23.5002 9.20455 23.5002 8.09998C23.5002 6.99541 22.6048 6.09998 21.5002 6.09998C20.3957 6.09998 19.5002 6.99541 19.5002 8.09998C19.5002 9.20455 20.3957 10.1 21.5002 10.1Z" fill="#141313"/>
<path d="M9.05005 13.95C10.1546 13.95 11.05 13.0545 11.05 11.95C11.05 10.8454 10.1546 9.94995 9.05005 9.94995C7.94548 9.94995 7.05005 10.8454 7.05005 11.95C7.05005 13.0545 7.94548 13.95 9.05005 13.95Z" fill="#141313"/>
<path d="M22.5002 4.59998C23.0525 4.59998 23.5002 4.15226 23.5002 3.59998C23.5002 3.04769 23.0525 2.59998 22.5002 2.59998C21.948 2.59998 21.5002 3.04769 21.5002 3.59998C21.5002 4.15226 21.948 4.59998 22.5002 4.59998Z" fill="#141313"/>
<path d="M7.0498 19.5C7.60209 19.5 8.0498 19.0523 8.0498 18.5C8.0498 17.9477 7.60209 17.5 7.0498 17.5C6.49752 17.5 6.0498 17.9477 6.0498 18.5C6.0498 19.0523 6.49752 19.5 7.0498 19.5Z" fill="#141313"/>
<path d="M29 25C29.5523 25 30 24.5523 30 24C30 23.4477 29.5523 23 29 23C28.4477 23 28 23.4477 28 24C28 24.5523 28.4477 25 29 25Z" fill="#141313"/>
<path d="M15.5002 15.45C16.3287 15.45 17.0002 14.7784 17.0002 13.95C17.0002 13.1215 16.3287 12.45 15.5002 12.45C14.6718 12.45 14.0002 13.1215 14.0002 13.95C14.0002 14.7784 14.6718 15.45 15.5002 15.45Z" fill="#141313"/>
<path d="M10.5 7.84998C11.0523 7.84998 11.5 7.40226 11.5 6.84998C11.5 6.29769 11.0523 5.84998 10.5 5.84998C9.94772 5.84998 9.5 6.29769 9.5 6.84998C9.5 7.40226 9.94772 7.84998 10.5 7.84998Z" fill="#141313"/>
<path d="M25.9998 27.3C27.1043 27.3 27.9998 26.4046 27.9998 25.3C27.9998 24.1955 27.1043 23.3 25.9998 23.3C24.8952 23.3 23.9998 24.1955 23.9998 25.3C23.9998 26.4046 24.8952 27.3 25.9998 27.3Z" fill="#141313"/>
<path d="M15.0999 4.40001C15.0999 5.80001 16.1999 6.90001 17.5999 6.90001C18.9999 6.90001 20.0999 5.80001 20.0999 4.40001C20.0999 3.00001 18.9999 1.90001 17.5999 1.90001C16.1999 1.85001 15.0999 3.00001 15.0999 4.40001Z" fill="#141313"/>
</g>
<defs>
<filter id="filter0_d" x="0" y="0" width="38" height="38" filterUnits="userSpaceOnUse" color-interpolation-filters="sRGB">
<feFlood flood-opacity="0" result="BackgroundImageFix"/>
<feColorMatrix in="SourceAlpha" type="matrix" values="0 0 0 0 0 0 0 0 0 0 0 0 0 0 0 0 0 0 127 0"/>
<feOffset dy="4"/>
<feGaussianBlur stdDeviation="2"/>
<feColorMatrix type="matrix" values="0 0 0 0 0 0 0 0 0 0 0 0 0 0 0 0 0 0 0.25 0"/>
<feBlend mode="normal" in2="BackgroundImageFix" result="effect1_dropShadow"/>
<feBlend mode="normal" in="SourceGraphic" in2="effect1_dropShadow" result="shape"/>
</filter>
</defs>
</svg>
