<svg width="68" height="68" viewBox="0 0 68 68" fill="none" xmlns="http://www.w3.org/2000/svg">
<g filter="url(#filter0_d)">
<path d="M16.8008 42L12.8008 51.3L22.1008 47.3C20.0008 45.8 18.2008 44 16.8008 42Z" fill="#FFCE31"/>
<path d="M51.2 18L55.2 8.69995L46 12.7C48 14.2 49.8 16 51.2 18Z" fill="#FFCE31"/>
<path d="M13.4 26.3L4 30.0001L13.4 33.7001C13.1 32.5001 13 31.3001 13 30.0001C13 28.7 13.1 27.5 13.4 26.3Z" fill="#FFCE31"/>
<path d="M54.6001 33.7001L64.0001 30.0001L54.6001 26.3C54.8001 27.5 55.0001 28.8 55.0001 30.0001C55.0001 31.3001 54.9001 32.5001 54.6001 33.7001Z" fill="#FFCE31"/>
<path d="M22.0002 12.8L12.7002 8.80005L16.7002 18.1001C18.2002 16.0001 20.0002 14.2 22.0002 12.8Z" fill="#FFCE31"/>
<path d="M46 47.1999L55.3 51.1999L51.3 41.8999C49.8 43.9999 48 45.7999 46 47.1999Z" fill="#FFCE31"/>
<path d="M37.7003 9.4L34.0003 0L30.3003 9.4C31.5003 9.2 32.8003 9 34.0003 9C35.2003 9 36.5003 9.1 37.7003 9.4Z" fill="#FFCE31"/>
<path d="M30.3003 50.6001L34.0003 60.0001L37.7003 50.6001C36.5003 50.9001 35.3003 51.0001 34.0003 51.0001C32.7003 51.0001 31.5003 50.9001 30.3003 50.6001Z" fill="#FFCE31"/>
<path d="M34 49C44.4934 49 53 40.4934 53 30C53 19.5066 44.4934 11 34 11C23.5066 11 15 19.5066 15 30C15 40.4934 23.5066 49 34 49Z" fill="#FFCE31"/>
</g>
<defs>
<filter id="filter0_d" x="0" y="0" width="68.0001" height="68.0001" filterUnits="userSpaceOnUse" color-interpolation-filters="sRGB">
<feFlood flood-opacity="0" result="BackgroundImageFix"/>
<feColorMatrix in="SourceAlpha" type="matrix" values="0 0 0 0 0 0 0 0 0 0 0 0 0 0 0 0 0 0 127 0"/>
<feOffset dy="4"/>
<feGaussianBlur stdDeviation="2"/>
<feColorMatrix type="matrix" values="0 0 0 0 0 0 0 0 0 0 0 0 0 0 0 0 0 0 0.25 0"/>
<feBlend mode="normal" in2="BackgroundImageFix" result="effect1_dropShadow"/>
<feBlend mode="normal" in="SourceGraphic" in2="effect1_dropShadow" result="shape"/>
</filter>
</defs>
</svg>
